<svg width="54" height="50" viewBox="0 0 54 50" fill="none" xmlns="http://www.w3.org/2000/svg">
<g clip-path="url(#clip0_647_14352)">
<path d="M0 35.7742V43.0152H4.8836L5.4793 41.5781H1.5945V35.7742H0Z" fill="#E9223C"/>
<path d="M9.09731 35.7816H10.5652L13.6699 43.023H12.0062L11.3527 41.3934H8.27892L7.61801 43.0152H5.99261L9.09731 35.7816ZM10.7766 39.9852L9.81561 37.6359L8.85512 39.9852H10.7766Z" fill="#E9223C"/>
<path d="M18.6422 37.2438H16.3676V35.7746H22.5078V37.2438H20.2352V43.0152H18.6422V37.2438Z" fill="#E9223C"/>
<path d="M24.2047 35.7816H27.5148C28.4336 35.7816 29.1348 36.0281 29.6285 36.5176C30.0477 36.9605 30.2684 37.5551 30.2395 38.1645V38.1852C30.2656 38.6988 30.116 39.2062 29.8168 39.6246C29.5293 39.993 29.1426 40.2723 28.7023 40.4293L30.4715 43.0152H28.6082L27.05 40.7H25.7973V43.0152H24.2047V35.7816ZM27.4113 39.2918C27.7375 39.3148 28.0609 39.2152 28.318 39.0133C28.5301 38.825 28.6457 38.5512 28.6332 38.268V38.2484C28.6527 37.9539 28.5289 37.668 28.3008 37.4801C28.0332 37.2922 27.709 37.2008 27.3824 37.2207H25.7996V39.2918H27.4113Z" fill="#E9223C"/>
<path d="M35.1973 43.1398C34.6707 43.1449 34.1484 43.0449 33.6602 42.8461C33.209 42.6598 32.7965 42.3891 32.4465 42.0488C32.1031 41.7141 31.832 41.3129 31.6508 40.8691C31.459 40.4098 31.3613 39.9164 31.3645 39.4184V39.3957C31.3605 38.8969 31.459 38.4023 31.6547 37.9434C32.0359 37.0348 32.7645 36.3164 33.6777 35.9469C34.1684 35.7461 34.6945 35.6453 35.2246 35.6516C35.7512 35.6457 36.2742 35.7461 36.7613 35.9469C37.2125 36.1324 37.6242 36.4023 37.9738 36.7426C38.3148 37.0785 38.5859 37.4785 38.7711 37.9203C38.9617 38.3816 39.0582 38.877 39.0551 39.3766V39.3957C39.0586 39.8945 38.9602 40.3891 38.7652 40.848C38.5766 41.2938 38.3043 41.6992 37.9621 42.0414C37.6129 42.3875 37.198 42.6613 36.7422 42.8461C36.2543 43.0445 35.7316 43.1445 35.2051 43.1398M35.2164 41.6723C35.5184 41.6754 35.8176 41.6148 36.0945 41.4957C36.3578 41.3852 36.5934 41.2195 36.7867 41.0094C36.9777 40.7988 37.1281 40.5547 37.2305 40.2891C37.3383 40.0121 37.3926 39.7164 37.3895 39.4184V39.3957C37.3918 39.0957 37.3379 38.7977 37.2305 38.518C36.7812 37.3832 35.4977 36.827 34.3629 37.2758C34.3465 37.2824 34.3297 37.2887 34.3137 37.2961C34.0543 37.4086 33.8215 37.5742 33.6297 37.782C33.4395 37.9922 33.2891 38.2359 33.1859 38.5004C33.0773 38.7793 33.0223 39.0766 33.0246 39.3766V39.3957C33.0227 39.6969 33.0773 39.9949 33.1859 40.2754C33.2875 40.5449 33.4422 40.7902 33.6414 40.998C34.0484 41.4355 34.6211 41.6805 35.2184 41.6723" fill="#E9223C"/>
<path d="M40.9082 35.7816H44.2645C45.0984 35.7816 45.7281 35.9957 46.1531 36.4234C46.4773 36.7473 46.6543 37.1895 46.643 37.6477V37.6684C46.6457 37.8543 46.6195 38.0391 46.5641 38.216C46.5172 38.3684 46.4484 38.5133 46.3605 38.6465C46.2781 38.7707 46.1785 38.8836 46.0668 38.9828C45.957 39.082 45.8355 39.1684 45.7059 39.2398C46.0828 39.3707 46.4219 39.5926 46.6934 39.8855C46.9492 40.2059 47.0777 40.6098 47.0543 41.0188V41.0398C47.0617 41.3414 46.9957 41.6391 46.8621 41.909C46.7355 42.1586 46.5477 42.373 46.316 42.5312C46.0551 42.702 45.7648 42.8234 45.4598 42.8902C45.0961 42.977 44.723 43.0176 44.3492 43.0133H40.9082V35.7816ZM43.9305 38.7023C44.2207 38.7164 44.5098 38.6539 44.7684 38.5215C44.9719 38.4031 45.091 38.1805 45.0773 37.9449V37.9242C45.0895 37.7059 44.9871 37.4973 44.8082 37.3727C44.5781 37.2309 44.3098 37.1637 44.0398 37.1809H42.4684V38.7176L43.9305 38.7023ZM44.3527 41.6184C44.6418 41.6324 44.9281 41.5656 45.1812 41.4266C45.384 41.3004 45.5027 41.0734 45.4906 40.8344V40.8137C45.4992 40.5871 45.3945 40.3711 45.2117 40.2371C44.9422 40.073 44.6273 39.9984 44.3129 40.0238H42.4703V41.6168L44.3527 41.6184Z" fill="#E9223C"/>
<path d="M48.4977 35.7742H53.9484V37.1922H50.0691V38.6617H52.9047V40.0793H50.0691V41.6012H54V43.0152H48.4977V35.7742Z" fill="#E9223C"/>
<path d="M7.59378 48.2992V46.1324H6.93628V48.3215C6.93628 49.4035 7.51518 50 8.56448 50C9.61408 50 10.2195 49.3949 10.2195 48.293V46.1324H9.56558V48.3277C9.56558 49.0188 9.20548 49.4137 8.57808 49.4137C7.95038 49.4137 7.59218 49.0066 7.59218 48.2992" fill="black"/>
<path d="M11.7262 46.1324V49.9363H12.3715V47.1434L14.4984 49.9363H15.0801V46.1324H14.4363V48.8438L12.3715 46.1324H11.7262Z" fill="black"/>
<path d="M16.8922 46.1324H17.5477V49.9363H16.8922V46.1324Z" fill="black"/>
<path d="M19.6656 46.1324H18.9391L20.477 49.9363H21.1047L22.6438 46.1324H21.9379L20.8023 49.1918L19.6656 46.1324Z" fill="black"/>
<path d="M24.516 48.2992H26.4195V47.7398H24.516V46.6902H26.6785V46.1324H23.8664V49.9363H26.7066V49.3785H24.516V48.2992Z" fill="black"/>
<path d="M28.8027 48.0863V46.7023H29.8C30.3094 46.7023 30.6129 46.9598 30.6129 47.3934C30.6129 47.827 30.3008 48.0863 29.8227 48.0863H28.8027ZM30.4914 48.5004C30.984 48.3449 31.3086 47.8754 31.2805 47.3594C31.2957 47.0449 31.1836 46.7379 30.9695 46.507C30.7238 46.2629 30.3449 46.1324 29.8742 46.1324H28.1457V49.9363H28.8027V48.6441H29.6742L30.5375 49.9363H31.3027L30.3555 48.5523L30.4914 48.5004Z" fill="black"/>
<path d="M34.2629 47.7473C33.616 47.5816 33.3066 47.4855 33.3066 47.1066C33.3066 46.8621 33.5023 46.625 33.9402 46.625C34.3074 46.6414 34.6621 46.7648 34.9598 46.9805L35.2988 46.4965C34.9094 46.2156 34.4395 46.0676 33.9598 46.0746C33.184 46.0746 32.6629 46.5191 32.6629 47.1758C32.6629 47.8715 33.048 48.0859 33.9105 48.3082C34.534 48.468 34.8121 48.5953 34.8121 48.9328C34.8121 49.1844 34.6285 49.4418 34.1148 49.4418C33.6812 49.4332 33.2633 49.2766 32.9309 48.9977L32.552 49.4523C32.9918 49.8055 33.5391 49.9965 34.1031 49.9941C34.9453 49.9941 35.468 49.5605 35.468 48.8602C35.468 48.2684 35.1449 47.9719 34.2746 47.7484" fill="black"/>
<path d="M36.8961 46.1324H37.552V49.9363H36.8961V46.1324Z" fill="black"/>
<path d="M40.243 49.9363H40.8984V46.7188H42.127V46.1324H39.0141V46.7188H40.243V49.9363Z" fill="black"/>
<path d="M46.0848 46.1324L45.0367 47.8613L44.0098 46.1324H43.2488L44.7039 48.4281V49.9363H45.3609V48.4086L46.816 46.1324H46.0848Z" fill="black"/>
<path d="M42.4082 8.0672C42.3105 8.2449 42.1688 8.3949 41.9965 8.5035C42.643 8.5035 42.4082 8.0672 42.4082 8.0672Z" fill="black"/>
<path d="M44.1957 8.63119C44.1051 7.74569 43.6316 7.67579 43.166 7.48629C42.7008 7.29689 41.8648 7.07459 41.5562 6.87269C41.2445 6.70939 40.9051 6.60589 40.5555 6.56799C40.1848 6.51049 39.25 6.56799 38.8215 6.50229C38.3934 6.43629 37.7348 6.30859 37.5863 6.40349C37.3465 6.87699 36.9066 7.21719 36.3879 7.33009C35.7418 7.53159 34.9219 7.74179 34.3289 7.91049C34.3289 7.60159 34.3621 6.67499 35.1523 5.32029C36.141 3.67339 36.4168 3.11289 35.9758 2.68049C35.5355 2.24839 33.5465 3.24099 33.5465 3.24099C33.577 3.08319 33.5977 2.92339 33.6082 2.76329C34.1809 2.42539 36.3508 1.21909 37.2359 1.71329C38.2617 2.28549 37.0059 3.87499 36.8906 4.02339C36.775 4.17149 35.3789 6.25939 35.0988 7.10739L35.684 6.94689C35.684 6.94689 36.9809 4.86329 37.4301 4.31129C37.8785 3.75979 38.9164 2.17419 38.0848 1.47419C37.2527 0.774192 35.9102 1.06249 33.6246 2.51989C33.6496 1.76249 33.5012 0.626192 32.4555 0.230492C30.7422 -0.423808 24.9152 0.0409923 18.2852 5.32459C16.4863 6.63949 14.8016 8.10389 13.2488 9.70159C10.9059 12.1312 8.71914 14.643 9.41954 15.0301C10.1852 15.4418 12.1703 13.2184 12.4047 12.9711C12.4047 12.9711 14.4887 13.0992 17.0953 10.8672C18.1387 11.434 19.3629 11.5688 20.5051 11.2418C20.5051 11.2418 19.7227 13.1855 22.0406 13.0246C22.0406 13.0246 21.8434 13.9719 22.6297 13.8113C22.6297 13.8113 18.0461 16.4961 18.125 16.6031C18.2027 16.7102 20.4719 15.7098 21.5836 15.1457C22.2508 14.8078 22.6504 14.4828 23.1855 14.3961C24.9797 14.2012 26.7145 13.6402 28.2836 12.7492C30.9484 11.2914 31.8008 9.40939 31.9242 8.05899C31.9242 8.05899 31.2445 8.67229 31.0758 8.65159C30.907 8.63119 31.1824 7.93519 31.2527 7.48629C31.323 7.03749 31.8582 5.29139 31.3598 5.50159C30.8617 5.71169 29.3012 7.26839 28.7117 6.27149C28.3004 5.53439 29.4492 4.15079 29.4492 4.15079C29.4492 4.15079 25.8461 6.15229 25.1828 5.12269C24.5941 4.20859 25.5945 3.47539 25.5945 3.47539C22.7727 4.65979 20.0746 6.12069 17.5398 7.83629C13.4672 10.591 11.0129 13.9762 10.2184 14.1078C9.42344 14.2395 16.6133 5.66249 24.3676 2.57769C28.5516 0.905892 31.3684 0.687892 32.4926 1.21479C33.1512 1.51949 33.073 2.36369 33.073 2.56949C33.073 2.56949 32.4883 8.10819 33.4848 9.49569C33.4848 9.49569 34.3082 9.03049 35.0211 8.72579C35.0211 8.72579 34.6914 8.72579 34.8562 8.42499C34.9426 8.26049 35.2102 8.17419 35.593 8.05469C36.1125 7.88979 37.0059 7.81989 37.4832 7.47379C37.9609 7.12809 37.8953 6.98829 38.1465 6.90589C38.6328 6.99379 39.1266 7.03239 39.6207 7.02109C40.043 6.94729 40.4746 6.94729 40.8973 7.02109C41.5309 7.32269 42.1859 7.57729 42.8578 7.78279C43.475 7.89799 43.5449 7.94339 43.7508 8.30589C43.898 8.57299 43.9828 8.86989 43.998 9.17459H43.9734C43.5535 9.02619 43.1086 8.96209 42.6637 8.98549C42.8984 9.01019 43.1332 9.10859 42.7875 9.19099C42.4414 9.27339 41.4203 9.60269 41.4203 9.60269C41.6691 9.33479 41.9742 9.12539 42.3137 8.98949H41.0785C41.3254 8.75589 41.4891 8.44769 41.5434 8.11249C41.6539 8.09409 41.7633 8.06679 41.8688 8.03009C42.2066 7.91479 41.8316 7.82419 41.1031 7.79529C40.6652 7.77769 40.2293 7.73239 39.7977 7.65939L39.6125 7.98049C39.8223 7.89489 40.05 7.86209 40.2754 7.88589C40.2762 8.13979 40.4676 8.35229 40.7199 8.37969C40.8465 8.39609 40.975 8.37579 41.0906 8.32229C40.9551 8.73439 40.5227 8.97029 40.1023 8.86169C39.8363 8.78979 39.6105 8.61289 39.4762 8.37149C39.4762 8.37149 39.0402 9.26949 38.6281 9.48749C38.2164 9.70589 36.075 10.6859 35.1938 11.7688C34.3121 12.852 33.9582 13.2184 33.2832 13.416C32.6078 13.6137 32.5254 13.618 32.4387 13.7125C32.3523 13.807 31.6152 14.9477 29.3215 16.1832C28.5844 16.5949 28.2797 16.5664 28.1562 16.4426C27.95 16.2367 28.2137 15.907 28.0699 15.9156C27.7312 15.9672 27.4051 16.0789 27.1059 16.2449C26.3523 16.5664 25.8707 16.8383 25.3023 16.8875C24.734 16.9367 24.2562 16.768 24.2191 15.9855C24.2191 15.9855 24.1945 15.9855 23.8074 16.1051C23.4203 16.2242 21.2668 17.2332 20.4844 17.2414C20.0727 17.2414 20.8383 16.2695 20.8383 16.2695C20.8383 16.2695 18.7793 17.5051 18.343 17.6988C17.9062 17.8922 16.6379 18.4273 17.1402 17.118C14.827 18.4688 12.3625 19.5426 9.79804 20.3176C8.37734 20.7539 8.03554 20.5648 8.04774 20.9145C8.04774 21.0793 8.20864 21.141 8.42274 21.1535C8.87734 21.1828 9.33404 21.168 9.78594 21.1082C11.1547 20.8973 12.5062 20.5863 13.8297 20.1777C15.8598 19.527 16.4648 18.8309 17.8734 19.2223C19.6648 19.7164 20.5543 18.9754 20.5543 18.9754C20.5543 18.9754 20.8262 19.4609 21.9297 19.4406C21.9297 19.4406 22.9387 20.2066 24.7793 19.9141C25.3469 20.1684 25.9652 20.2906 26.5871 20.2723C26.6867 20.7973 26.7297 21.3316 26.7148 21.866C26.6488 22.7594 26.7148 23.0105 27.2129 22.5703C27.4418 23.2 27.6316 23.8438 27.7812 24.4973C27.8145 24.8844 27.8062 25.123 28.0117 25.1477C28.1266 25.1633 28.243 25.1633 28.3578 25.1477C28.4848 25.398 28.718 25.5777 28.9922 25.6379C28.9922 25.6379 29.0371 25.7863 28.2633 26.091C27.8762 26.2434 27.5219 26.6055 27.6578 26.7828H28.325C28.5977 26.5332 28.9977 26.4805 29.3258 26.6504C29.5258 26.741 29.6359 26.9594 29.5891 27.1738C29.5703 27.2449 29.5383 27.3121 29.4941 27.3715C29.4695 27.4125 29.4121 27.4867 29.3461 27.598C29.2805 27.7094 29.1484 27.9727 29.1855 28.0469C29.2227 28.1207 29.523 28.5449 28.7734 28.6395C28.7734 28.6395 28.8105 28.7883 29.0414 28.7758C29.2723 28.7633 29.8648 28.3969 29.8648 28.2113C30.0539 27.9867 30.2066 27.734 30.318 27.4617C30.491 27.0211 30.5117 26.9555 30.5695 27.0211C30.7285 27.3039 30.7641 27.6383 30.668 27.948C30.5484 28.2402 30.4457 28.298 30.5406 28.4258C30.5906 28.4699 30.6441 28.5098 30.7008 28.5449C30.7625 28.5902 30.7711 28.7016 30.5898 28.8789C30.277 29.1957 31.1289 28.8211 31.2488 28.5246C31.2488 28.5246 31.5207 28.2113 31.4094 27.0293C31.4094 27.0293 31.4094 26.9023 31.5453 26.9965C31.7594 27.1145 31.9102 27.3211 31.9566 27.5609C31.9566 27.7789 31.8625 27.9727 32.0105 28.0469C32.1586 28.1207 32.1672 28.3512 32.1094 28.4957C32.0516 28.6395 31.7227 28.6809 31.8008 28.7055C32.1867 28.7492 32.5355 28.4711 32.5789 28.0844C32.5809 28.0668 32.5824 28.0484 32.5832 28.0305C32.6895 27.2203 32.2895 26.4277 31.5738 26.0332C30.75 25.5348 30.4949 25.2879 30.3676 22.3023C30.3816 21.2637 30.5426 20.2324 30.8453 19.2387C31.1168 18.2504 31.4461 17.6988 31.4629 17.8098C31.4961 18.0074 31.2281 18.7566 31.2074 19.1316C32.2828 18.5805 33.3215 17.9602 34.3164 17.2746C34.7215 16.9453 35.0891 16.5727 35.4121 16.1629C35.4406 16.1254 36.034 15.5453 36.2684 13.9844L37.1824 12.193C37.1824 12.193 37.5449 12.7941 37.8496 12.432C38.1547 12.0695 38.7883 11.032 38.8875 11.0195C38.8875 11.0195 39.0359 11.4891 39.2543 11.3527C39.4723 11.2172 39.559 10.7148 40.1191 10.4469C40.6191 10.2301 41.1324 10.043 41.6547 9.88709C41.6547 9.88709 43.866 9.33949 43.9445 9.50429C43.9973 9.68359 44.0246 9.86909 44.027 10.0559C44.2539 9.62969 44.3379 9.14139 44.2656 8.66409M30.6598 25.5965C30.7434 25.7625 30.8684 25.9043 31.0223 26.0086C31.325 26.1633 31.6109 26.3496 31.8746 26.5641C31.9566 26.6469 32.0434 26.7742 31.998 26.8074C31.9531 26.8402 31.8379 26.8074 31.5863 26.5727C31.3352 26.3379 31.2035 26.4777 31.1746 26.6219C31.1879 26.8855 31.1879 27.1492 31.1746 27.4125C31.1332 27.6762 31.002 27.7133 31.0141 27.4125C31.0266 27.1117 30.8617 26.441 30.5695 26.4656C30.377 26.5031 30.2191 26.6414 30.1574 26.8277C30.0875 26.9719 29.9801 27.1117 30.0129 26.9922C30.023 26.7742 29.9789 26.5562 29.8859 26.3586C29.7293 26.0207 29.6797 25.984 29.4984 25.9469C29.3172 25.9098 29.3012 25.7652 29.6137 25.6297C29.9184 25.457 30.2863 25.4391 30.6066 25.5805" fill="black"/>
<path d="M17.8734 19.6875C17.2719 19.4613 16.3992 19.6875 15.5387 20.0664C14.6781 20.4453 10.5391 21.8453 8.17542 21.7137C8.17542 21.7137 8.52542 22.2488 9.97112 22.4793C9.97112 22.4793 9.85162 23.3031 11.2762 22.9777C12.7012 22.6523 17.8078 20.3754 18.8824 19.7656C18.5473 19.859 18.1902 19.8312 17.8734 19.6875Z" fill="black"/>
<path d="M21.5508 19.877C21.0887 19.9047 20.6328 19.7578 20.2742 19.4652L15.209 22.084C15.209 22.084 12.8945 23.1629 13.3438 23.4391C13.3438 23.4391 14.0641 23.8508 15.6824 23.2207C17.3008 22.5906 21.8598 20.0625 21.8598 20.0625C21.8598 20.0625 21.5918 19.877 21.5754 19.877" fill="black"/>
<path d="M23.7004 20.3422C23.3055 20.3684 22.9102 20.2988 22.5473 20.1406C22.5473 20.1406 19.8129 21.8781 19.2984 22.1586C18.7836 22.4383 17.9684 22.7676 18.8867 22.9117C19.8047 23.0559 20.7477 22.9609 22.2797 21.6395C22.7836 21.2336 23.2645 20.8004 23.7211 20.3422" fill="black"/>
<path d="M32.3855 19.0328C31.8461 19.3211 31.1746 19.6176 31.1746 19.6176C30.9984 20.5121 30.9379 21.4254 30.9934 22.3352C31.0758 24.6125 31.323 25.2465 32.0641 25.6746C32.7633 26.0309 33.2297 26.7219 33.2996 27.5035C33.2996 27.7953 33.2625 27.8699 33.357 27.9727C33.452 28.0758 33.4438 28.1414 33.332 28.3391C33.2211 28.5367 32.9207 28.5902 33.0316 28.6066C33.316 28.6566 33.5961 28.5 33.7031 28.2316C33.8801 27.8203 34.0816 27.6105 33.7441 26.7496C33.7441 26.7496 34.1559 26.684 34.2922 27.4246C34.3867 27.8988 34.2383 28.0715 34.6172 28.207C34.6172 28.207 34.6746 28.3762 34.4605 28.6191C34.2465 28.8621 34.5266 28.7551 34.6746 28.6809C34.9703 28.4969 35.1309 28.1574 35.0867 27.8121C35.0316 27.4133 34.8914 27.0312 34.6746 26.6922C34.8504 26.7477 34.998 26.8684 35.0867 27.0293C35.2391 27.3016 35.2188 27.4414 35.5977 27.4414C35.7051 27.5414 35.7672 27.6812 35.7703 27.8285C35.7703 28.0922 35.4574 28.2773 35.5645 28.2402C35.6715 28.2031 36.3879 27.9523 35.8441 27.0539C35.7715 26.7777 35.5883 26.5426 35.3379 26.4039C34.9262 26.1855 34.4031 25.5805 33.4477 25.4113C33.2367 25.1949 33.0605 24.948 32.9246 24.6785C32.9566 24.6062 32.9828 24.532 33.0027 24.4559C33.0234 24.3488 32.3812 21.0711 33.9379 18.1352C33.9379 18.1352 32.8918 18.7445 32.3527 19.0285M33.3734 25.6379C33.909 25.6379 35.1117 26.4367 35.091 26.5316C35.0703 26.6258 34.6418 26.4199 34.5184 26.3707C34.3949 26.3215 34.2137 26.3012 34.3535 26.4984C34.5105 26.7305 34.6211 26.9902 34.6789 27.2645C34.6789 27.359 34.5801 27.2645 34.5801 27.2645C34.4367 26.8656 34.1527 26.5332 33.7812 26.3297C33.5551 26.2434 33.4848 26.2969 33.4723 26.4531C33.4602 26.6094 33.5426 26.9184 33.3652 26.4777C33.2023 26.1273 32.9547 25.823 32.6445 25.5926C32.5172 25.5102 32.5746 25.4191 32.5746 25.4191C32.6492 25.3617 32.7457 25.3395 32.8383 25.3578C33.0367 25.3973 33.2211 25.4883 33.3734 25.6211" fill="black"/>
<path d="M22.4402 27.841L23.5891 28.3105C23.5598 28.7418 23.7582 29.1574 24.1121 29.4059C24.0336 29.6207 23.8898 29.8047 23.7004 29.9328C23.6305 29.9863 23.5727 29.9988 23.5891 30.0191C23.6059 30.0398 23.6512 30.0191 23.6961 29.9945C24.7918 29.5828 24.8988 28.5574 24.8492 27.8574C24.8227 27.4531 24.6379 27.0754 24.3348 26.8074C24.3348 26.8074 26.1793 27.0625 26.8508 26.927C27.5219 26.7906 26.8508 26.7617 26.8508 26.7617C25.4547 26.7617 23.898 26.2145 23.1074 26.4738C22.441 26.7086 21.9945 27.3367 21.9914 28.0426C21.8844 28.6871 22.1387 29.3383 22.6547 29.7391C22.7 29.7762 22.7617 29.8301 22.7699 29.8219C22.7781 29.8133 22.7285 29.7352 22.7078 29.702C22.3629 29.1488 22.2727 28.4734 22.4609 27.8492" fill="black"/>
<path d="M41.6797 29.2781C40.9129 29.3168 40.1453 29.2684 39.3898 29.134L39.2254 29.2328C39.8637 29.4648 40.5387 29.5805 41.2184 29.5746C41.4367 29.6117 41.1773 29.7023 41.1773 29.7023C40.016 30.6535 38.0848 30.3695 35.2434 30.3695C32.402 30.3695 29.4242 31.1926 28.4484 31.3371C28.0367 31.4027 27.7277 31.0609 27.452 30.925C27.2418 30.8156 27.0242 30.7207 26.8012 30.641C29.7023 30.0129 32.6492 29.6246 35.6137 29.4797C37.7676 29.3316 39.5879 29.6363 39.8141 28.0098C39.8867 27.5836 39.8051 27.1453 39.5836 26.7742C39.3129 26.3406 38.9164 26.0004 38.4469 25.798C38.3594 25.7762 38.2672 25.7762 38.1793 25.798C37.3672 26.052 36.5309 26.2207 35.684 26.3012C35.4574 26.3297 35.5809 26.3953 35.5809 26.3953C36.4164 26.4492 37.2547 26.3441 38.0516 26.0867C38.1227 26.0645 38.1988 26.0645 38.2699 26.0867C38.7637 26.252 39.148 26.6441 39.3031 27.141C39.7688 28.4176 38.7723 28.7137 37.9199 28.7551C37.0676 28.7965 33.4723 29.1672 32.1094 29.2492C30.7461 29.3316 27.168 29.8215 25.8457 30.0148C24.8453 30.1676 23.5648 30.2582 23.5648 30.2582C23.2188 30.2582 23.7867 30.423 25.15 30.6246C26.5129 30.8266 26.8754 31.3656 27.4352 31.7199C27.8086 31.8711 28.218 31.9109 28.6133 31.8352C29.1773 31.7777 30.3758 31.4234 31.1418 31.3082C33.6621 30.9164 36.216 30.7785 38.7641 30.8961C40.7285 30.9582 41.4199 30.3941 42.0832 29.5703C42.3961 29.1832 41.6715 29.3027 41.6715 29.3027" fill="black"/>
</g>
<defs>
<clipPath id="clip0_647_14352">
<rect width="54" height="50" fill="white"/>
</clipPath>
</defs>
</svg>
