<svg width="48" height="45" viewBox="0 0 48 45" fill="none" xmlns="http://www.w3.org/2000/svg">
<g clip-path="url(#clip0_338_7086)">
<path d="M0 31.7993V38.2357H4.34098L4.87049 36.9583H1.41733V31.7993H0Z" fill="#E9223C"/>
<path d="M8.08648 31.8059H9.39128L12.151 38.2427H10.6722L10.0913 36.7941H7.35902L6.77155 38.2357H5.32675L8.08648 31.8059ZM9.5792 35.5424L8.72497 33.4541L7.8712 35.5424H9.5792Z" fill="#E9223C"/>
<path d="M16.5708 33.1056H14.549V31.7996H20.0069V33.1056H17.9868V38.2357H16.5708V33.1056Z" fill="#E9223C"/>
<path d="M21.5153 31.8059H24.4576C25.2743 31.8059 25.8976 32.025 26.3364 32.4601C26.7091 32.8538 26.9052 33.3823 26.8796 33.924V33.9424C26.9028 34.3989 26.7698 34.85 26.5038 35.2219C26.2483 35.5493 25.9045 35.7976 25.5132 35.9372L27.0858 38.2357H25.4295L24.0444 36.1778H22.9309V38.2357H21.5153V31.8059ZM24.3656 34.926C24.6556 34.9465 24.943 34.8579 25.1716 34.6785C25.3601 34.5111 25.4628 34.2677 25.4517 34.016V33.9986C25.4691 33.7368 25.359 33.4827 25.1563 33.3156C24.9184 33.1486 24.6302 33.0674 24.3399 33.0851H22.933V34.926H24.3656Z" fill="#E9223C"/>
<path d="M31.2865 38.3465C30.8184 38.351 30.3541 38.2621 29.9202 38.0854C29.5191 37.9198 29.1524 37.6792 28.8413 37.3767C28.5361 37.0792 28.2951 36.7226 28.134 36.3281C27.9636 35.9198 27.8767 35.4812 27.8796 35.0386V35.0184C27.876 34.575 27.9636 34.1354 28.1375 33.7275C28.4764 32.9198 29.124 32.2812 29.9357 31.9528C30.3719 31.7743 30.8396 31.6847 31.3108 31.6903C31.7788 31.6851 32.2437 31.7743 32.6767 31.9528C33.0778 32.1177 33.4437 32.3576 33.7545 32.6601C34.0576 32.9587 34.2986 33.3142 34.4632 33.7069C34.6326 34.117 34.7184 34.5573 34.7156 35.0014V35.0184C34.7188 35.4618 34.6313 35.9014 34.458 36.3093C34.2903 36.7056 34.0483 37.066 33.7441 37.3701C33.4337 37.6778 33.0649 37.9212 32.6597 38.0854C32.226 38.2618 31.7614 38.3507 31.2934 38.3465M31.3035 37.042C31.5719 37.0448 31.8379 36.9909 32.084 36.8851C32.318 36.7868 32.5275 36.6396 32.6993 36.4528C32.8691 36.2656 33.0028 36.0486 33.0938 35.8125C33.1896 35.5663 33.2379 35.3035 33.2351 35.0386V35.0184C33.2372 34.7517 33.1892 34.4868 33.0938 34.2382C32.6944 33.2295 31.5535 32.7351 30.5448 33.134C30.5302 33.1399 30.5153 33.1455 30.5011 33.1521C30.2705 33.2521 30.0636 33.3993 29.8931 33.584C29.724 33.7708 29.5903 33.9875 29.4986 34.2226C29.4021 34.4705 29.3532 34.7348 29.3552 35.0014V35.0184C29.3535 35.2861 29.4021 35.551 29.4986 35.8004C29.5889 36.0399 29.7264 36.258 29.9035 36.4427C30.2652 36.8316 30.7743 37.0493 31.3052 37.042" fill="#E9223C"/>
<path d="M36.3629 31.8059H39.3462C40.0875 31.8059 40.6472 31.9962 41.025 32.3764C41.3132 32.6643 41.4705 33.0573 41.4605 33.4646V33.483C41.4629 33.6483 41.4396 33.8125 41.3903 33.9698C41.3486 34.1052 41.2875 34.234 41.2093 34.3524C41.1361 34.4628 41.0476 34.5632 40.9483 34.6514C40.8507 34.7396 40.7427 34.8164 40.6275 34.8798C40.9625 34.9962 41.2639 35.1934 41.5053 35.4538C41.7326 35.7386 41.8469 36.0976 41.8261 36.4611V36.4798C41.8326 36.7479 41.774 37.0125 41.6552 37.2524C41.5427 37.4743 41.3757 37.6649 41.1698 37.8055C40.9379 37.9573 40.6798 38.0652 40.4087 38.1246C40.0854 38.2018 39.7538 38.2379 39.4215 38.234H36.3629V31.8059ZM39.0493 34.402C39.3073 34.4146 39.5643 34.359 39.7941 34.2413C39.975 34.1361 40.0809 33.9382 40.0687 33.7288V33.7104C40.0796 33.5164 39.9885 33.3309 39.8295 33.2202C39.625 33.0941 39.3865 33.0344 39.1465 33.0497H37.7497V34.4156L39.0493 34.402ZM39.4246 36.9941C39.6816 37.0066 39.9361 36.9472 40.1611 36.8236C40.3413 36.7115 40.4469 36.5097 40.4361 36.2972V36.2788C40.4437 36.0774 40.3507 35.8854 40.1882 35.7663C39.9486 35.6204 39.6687 35.5541 39.3893 35.5767H37.7514V36.9927L39.4246 36.9941Z" fill="#E9223C"/>
<path d="M43.1091 31.7993H47.9541V33.0597H44.5059V34.366H47.0264V35.626H44.5059V36.9788H48V38.2357H43.1091V31.7993Z" fill="#E9223C"/>
<path d="M6.75003 42.9326V41.0066H6.16559V42.9524C6.16559 43.9142 6.68017 44.4444 7.61288 44.4444C8.54585 44.4444 9.08399 43.9066 9.08399 42.9271V41.0066H8.50274V42.958C8.50274 43.5723 8.18266 43.9233 7.62497 43.9233C7.06701 43.9233 6.74861 43.5614 6.74861 42.9326" fill="white"/>
<path d="M10.4233 41.0066V44.3878H10.9969V41.9052L12.8875 44.3878H13.4045V41.0066H12.8323V43.4167L10.9969 41.0066H10.4233Z" fill="white"/>
<path d="M15.0153 41.0066H15.598V44.3878H15.0153V41.0066Z" fill="white"/>
<path d="M17.4805 41.0066H16.8347L18.2018 44.3878H18.7597L20.1278 41.0066H19.5003L18.4909 43.726L17.4805 41.0066Z" fill="white"/>
<path d="M21.792 42.9326H23.484V42.4354H21.792V41.5024H23.7142V41.0066H21.2146V44.3878H23.7392V43.892H21.792V42.9326Z" fill="white"/>
<path d="M25.6024 42.7434V41.5132H26.4889C26.9417 41.5132 27.2115 41.742 27.2115 42.1275C27.2115 42.5129 26.934 42.7434 26.5091 42.7434H25.6024ZM27.1035 43.1115C27.5413 42.9732 27.8299 42.5559 27.8049 42.0972C27.8184 41.8177 27.7188 41.5448 27.5284 41.3396C27.31 41.1226 26.9732 41.0066 26.5548 41.0066H25.0184V44.3878H25.6024V43.2392H26.3771L27.1444 44.3878H27.8246L26.9827 43.1576L27.1035 43.1115Z" fill="white"/>
<path d="M30.4559 42.442C29.8809 42.2948 29.6059 42.2093 29.6059 41.8725C29.6059 41.6552 29.7798 41.4444 30.1691 41.4444C30.4955 41.459 30.8108 41.5687 31.0754 41.7604L31.3767 41.3302C31.0306 41.0805 30.6129 40.949 30.1865 40.9552C29.4969 40.9552 29.0337 41.3503 29.0337 41.934C29.0337 42.5524 29.376 42.743 30.1427 42.9406C30.6969 43.0827 30.9441 43.1958 30.9441 43.4958C30.9441 43.7195 30.7809 43.9483 30.3243 43.9483C29.9389 43.9406 29.5674 43.8014 29.2719 43.5535L28.9351 43.9576C29.3261 44.2716 29.8125 44.4413 30.3139 44.4392C31.0625 44.4392 31.5271 44.0538 31.5271 43.4313C31.5271 42.9052 31.2399 42.6417 30.4663 42.443" fill="white"/>
<path d="M32.7965 41.0066H33.3796V44.3878H32.7965V41.0066Z" fill="white"/>
<path d="M35.7716 44.3878H36.3541V41.5278H37.4462V41.0066H34.6792V41.5278H35.7716V44.3878Z" fill="white"/>
<path d="M40.9642 41.0066L40.0326 42.5434L39.1198 41.0066H38.4434L39.7368 43.0472V44.3878H40.3208V43.0299L41.6142 41.0066H40.9642Z" fill="white"/>
<path d="M37.6962 7.17085C37.6093 7.3288 37.4834 7.46213 37.3302 7.55867C37.9049 7.55867 37.6962 7.17085 37.6962 7.17085Z" fill="white"/>
<path d="M39.2851 7.67218C39.2045 6.88507 38.7836 6.82294 38.3698 6.65449C37.9563 6.48614 37.2131 6.28854 36.9388 6.10907C36.6618 5.96392 36.3601 5.87192 36.0493 5.83823C35.7198 5.78712 34.8889 5.83823 34.508 5.77983C34.1275 5.72116 33.542 5.60765 33.41 5.69201C33.1969 6.11289 32.8059 6.41529 32.3448 6.51565C31.7705 6.69476 31.0417 6.88161 30.5146 7.03156C30.5146 6.75698 30.5441 5.93334 31.2465 4.72916C32.1253 3.26525 32.3705 2.76703 31.9785 2.38267C31.5871 1.99858 29.8191 2.88089 29.8191 2.88089C29.8462 2.74063 29.8646 2.59858 29.8739 2.45627C30.383 2.15592 32.3118 1.08365 33.0986 1.52294C34.0104 2.03156 32.8941 3.44445 32.7916 3.57636C32.6889 3.70801 31.4479 5.56392 31.1989 6.31769L31.7191 6.17503C31.7191 6.17503 32.8719 4.32294 33.2712 3.83227C33.6698 3.34205 34.5923 1.93263 33.8531 1.31041C33.1135 0.688184 31.9202 0.94445 29.8885 2.23992C29.9107 1.56667 29.7788 0.556628 28.8493 0.204895C27.3264 -0.376705 22.1468 0.0364508 16.2535 4.73298C14.6545 5.90178 13.157 7.20347 11.7767 8.62365C9.69413 10.7833 7.75031 13.016 8.37288 13.3601C9.05351 13.726 10.818 11.7497 11.0264 11.5299C11.0264 11.5299 12.8788 11.6437 15.1958 9.65974C16.1233 10.1636 17.2115 10.2834 18.2267 9.99272C18.2267 9.99272 17.5313 11.7204 19.5916 11.5774C19.5916 11.5774 19.4163 12.4195 20.1153 12.2767C20.1153 12.2767 16.041 14.6632 16.1111 14.7583C16.1802 14.8535 18.1972 13.9643 19.1854 13.4628C19.7785 13.1625 20.1337 12.8736 20.6093 12.7965C22.2042 12.6233 23.7462 12.1246 25.141 11.3326C27.5097 10.0368 28.2674 8.36392 28.3771 7.16356C28.3771 7.16356 27.7729 7.70872 27.6229 7.69032C27.4729 7.67218 27.7177 7.05352 27.7802 6.65449C27.8427 6.25556 28.3184 4.70347 27.8754 4.89032C27.4326 5.07707 26.0455 6.46081 25.5215 5.57467C25.1559 4.91947 26.1771 3.68961 26.1771 3.68961C26.1771 3.68961 22.9743 5.46872 22.3847 4.55352C21.8614 3.74098 22.7507 3.08925 22.7507 3.08925C20.2424 4.14205 17.8441 5.44063 15.5909 6.96561C11.9708 9.41423 9.78924 12.4233 9.08302 12.5403C8.37635 12.6573 14.7674 5.03334 21.6601 2.29129C25.3792 0.805251 27.883 0.611473 28.8823 1.07983C29.4677 1.35067 29.3982 2.10107 29.3982 2.28401C29.3982 2.28401 28.8785 7.20729 29.7643 8.44063C29.7643 8.44063 30.4962 8.02712 31.1299 7.75627C31.1299 7.75627 30.8368 7.75627 30.9833 7.48889C31.0601 7.34267 31.2979 7.26596 31.6382 7.15974C32.1 7.01316 32.8941 6.95103 33.3184 6.64338C33.743 6.33609 33.6847 6.21183 33.908 6.13858C34.3403 6.21672 34.7792 6.25103 35.2184 6.24098C35.5938 6.17538 35.9774 6.17538 36.3531 6.24098C36.9163 6.50907 37.4986 6.73538 38.0958 6.91805C38.6444 7.02045 38.7066 7.06081 38.8896 7.38303C39.0204 7.62045 39.0958 7.88436 39.1093 8.15521H39.0875C38.7142 8.02329 38.3187 7.96632 37.9233 7.98712C38.1319 8.00907 38.3406 8.09654 38.0333 8.16978C37.7257 8.24303 36.818 8.53574 36.818 8.53574C37.0392 8.29761 37.3104 8.11147 37.6122 7.99067H36.5142C36.7337 7.78303 36.8792 7.50907 36.9275 7.21112C37.0257 7.19476 37.1229 7.17049 37.2167 7.13787C37.517 7.03538 37.1836 6.95485 36.5361 6.92916C36.1468 6.91352 35.7594 6.87325 35.3757 6.80836L35.2111 7.09378C35.3976 7.01769 35.6 6.98854 35.8003 7.00969C35.8011 7.23538 35.9712 7.42427 36.1955 7.44863C36.308 7.4632 36.4222 7.44516 36.525 7.39761C36.4045 7.76392 36.0202 7.97361 35.6465 7.87707C35.41 7.81316 35.2093 7.65592 35.0899 7.44134C35.0899 7.44134 34.7024 8.23956 34.3361 8.43334C33.9701 8.62747 32.0667 9.49858 31.2834 10.4612C30.4996 11.424 30.1851 11.7497 29.5851 11.9253C28.9847 12.1011 28.9115 12.1049 28.8344 12.1889C28.7576 12.2729 28.1024 13.2868 26.0635 14.3851C25.4083 14.751 25.1375 14.7257 25.0277 14.6156C24.8444 14.4326 25.0788 14.1396 24.951 14.1472C24.6499 14.1931 24.3601 14.2924 24.0941 14.4399C23.4243 14.7257 22.9962 14.9674 22.4909 15.0111C21.9858 15.0548 21.5611 14.9049 21.5281 14.2093C21.5281 14.2093 21.5062 14.2093 21.1621 14.3156C20.818 14.4215 18.9038 15.3184 18.2083 15.3257C17.8424 15.3257 18.5229 14.4618 18.5229 14.4618C18.5229 14.4618 16.6927 15.5601 16.3049 15.7323C15.9166 15.9042 14.7892 16.3798 15.2357 15.216C13.1795 16.4167 10.9889 17.3712 8.70933 18.0601C7.44648 18.4479 7.14266 18.2798 7.15351 18.5907C7.15351 18.7372 7.29653 18.792 7.48684 18.8031C7.89093 18.8292 8.29688 18.816 8.69857 18.7628C9.91528 18.5754 11.1166 18.2989 12.2931 17.9357C14.0976 17.3573 14.6354 16.7386 15.8875 17.0865C17.4798 17.5257 18.2705 16.867 18.2705 16.867C18.2705 16.867 18.5122 17.2986 19.4931 17.2805C19.4931 17.2805 20.3899 17.9614 22.026 17.7014C22.5306 17.9275 23.0802 18.0361 23.633 18.0198C23.7215 18.4865 23.7597 18.9614 23.7465 19.4364C23.6878 20.2306 23.7465 20.4538 24.1892 20.0625C24.3927 20.6222 24.5614 21.1945 24.6944 21.7754C24.724 22.1195 24.7166 22.3316 24.8993 22.3535C25.0014 22.3674 25.1049 22.3674 25.2069 22.3535C25.3198 22.576 25.5271 22.7357 25.7708 22.7892C25.7708 22.7892 25.8107 22.9212 25.1229 23.192C24.7788 23.3275 24.4639 23.6493 24.5847 23.8069H25.1778C25.4202 23.5851 25.7757 23.5382 26.0674 23.6892C26.2451 23.7698 26.343 23.9639 26.3014 24.1545C26.2847 24.2177 26.2563 24.2774 26.217 24.3302C26.1951 24.3667 26.1441 24.4326 26.0854 24.5316C26.0271 24.6306 25.9097 24.8646 25.9427 24.9306C25.9757 24.9962 26.2427 25.3732 25.5763 25.4573C25.5763 25.4573 25.6093 25.5896 25.8146 25.5785C26.0198 25.5674 26.5465 25.2417 26.5465 25.0767C26.7146 24.8771 26.8503 24.6524 26.9493 24.4104C27.1031 24.0188 27.1215 23.9604 27.1729 24.0188C27.3142 24.2701 27.3459 24.5674 27.2604 24.8427C27.1541 25.1024 27.0628 25.1538 27.1472 25.2674C27.1916 25.3066 27.2392 25.342 27.2896 25.3732C27.3444 25.4135 27.3521 25.5125 27.1909 25.6701C26.9129 25.9517 27.6701 25.6188 27.7767 25.3552C27.7767 25.3552 28.0184 25.0767 27.9195 24.026C27.9195 24.026 27.9195 23.9132 28.0403 23.9969C28.2306 24.1018 28.3646 24.2854 28.4059 24.4986C28.4059 24.6924 28.3222 24.8646 28.4538 24.9306C28.5854 24.9962 28.5931 25.2011 28.5417 25.3295C28.4903 25.4573 28.1979 25.4941 28.2674 25.516C28.6104 25.5548 28.9204 25.3076 28.959 24.9639C28.9608 24.9483 28.9621 24.9319 28.9628 24.916C29.0573 24.1958 28.7018 23.4913 28.0656 23.1406C27.3333 22.6976 27.1066 22.4781 26.9934 19.8243C27.0059 18.9011 27.149 17.9844 27.418 17.1011C27.6594 16.2226 27.9521 15.7323 27.967 15.8309C27.9965 16.0066 27.7583 16.6725 27.7399 17.0059C28.6958 16.516 29.6191 15.9646 30.5035 15.3552C30.8635 15.0625 31.1903 14.7313 31.4774 14.367C31.5027 14.3337 32.0302 13.818 32.2386 12.4306L33.051 10.8382C33.051 10.8382 33.3732 11.3725 33.6441 11.0507C33.9153 10.7284 34.4785 9.80623 34.5667 9.79512C34.5667 9.79512 34.6986 10.2125 34.8927 10.0913C35.0865 9.97085 35.1635 9.52427 35.6614 9.28614C36.1059 9.09343 36.5621 8.92712 37.0264 8.78854C37.0264 8.78854 38.992 8.30178 39.0618 8.44827C39.1087 8.60765 39.133 8.77254 39.1351 8.93858C39.3368 8.55974 39.4115 8.12569 39.3472 7.70143M27.2531 22.7524C27.3275 22.9 27.4386 23.026 27.5754 23.1188C27.8444 23.2563 28.0986 23.4219 28.333 23.6125C28.4059 23.6861 28.483 23.7993 28.4427 23.8288C28.4027 23.858 28.3003 23.8288 28.0767 23.6202C27.8535 23.4115 27.7364 23.5357 27.7107 23.6639C27.7226 23.8982 27.7226 24.1326 27.7107 24.3667C27.6739 24.6011 27.5573 24.634 27.5681 24.3667C27.5792 24.0993 27.4326 23.5031 27.1729 23.525C27.0018 23.5583 26.8614 23.6812 26.8066 23.8468C26.7444 23.975 26.649 24.0993 26.6781 23.9931C26.6871 23.7993 26.6479 23.6055 26.5652 23.4299C26.426 23.1295 26.3819 23.0969 26.2208 23.0639C26.0597 23.0309 26.0455 22.9024 26.3233 22.782C26.5941 22.6284 26.9211 22.6125 27.2059 22.7382" fill="white"/>
<path d="M15.8875 17.5C15.3528 17.2989 14.5771 17.5 13.8122 17.8368C13.0472 18.1736 9.3681 19.418 7.26703 19.3011C7.26703 19.3011 7.57814 19.7767 8.86321 19.9816C8.86321 19.9816 8.75698 20.7139 10.0233 20.4246C11.29 20.1354 15.8292 18.1115 16.7844 17.5694C16.4865 17.6524 16.1691 17.6277 15.8875 17.5Z" fill="white"/>
<path d="M19.1563 17.6684C18.7455 17.6931 18.3403 17.5625 18.0215 17.3024L13.5191 19.6302C13.5191 19.6302 11.4618 20.5892 11.8612 20.8348C11.8612 20.8348 12.5014 21.2007 13.9399 20.6406C15.3785 20.0805 19.4309 17.8333 19.4309 17.8333C19.4309 17.8333 19.1927 17.6684 19.1781 17.6684" fill="white"/>
<path d="M21.067 18.082C20.716 18.1052 20.3646 18.0434 20.042 17.9028C20.042 17.9028 17.6115 19.4472 17.1541 19.6965C16.6965 19.9452 15.9719 20.2379 16.7882 20.366C17.6042 20.4941 18.4424 20.4097 19.8042 19.2351C20.2521 18.8743 20.6795 18.4892 21.0854 18.082" fill="white"/>
<path d="M28.7871 16.918C28.3076 17.1743 27.7108 17.4379 27.7108 17.4379C27.5541 18.233 27.5004 19.0448 27.5497 19.8535C27.6229 21.8778 27.8427 22.4413 28.5014 22.8219C29.1229 23.1386 29.5375 23.7528 29.5996 24.4476C29.5996 24.7069 29.5667 24.7732 29.6507 24.8646C29.7351 24.9563 29.7278 25.0146 29.6284 25.1903C29.5299 25.366 29.2628 25.4135 29.3614 25.4281C29.6142 25.4725 29.8632 25.3333 29.9583 25.0948C30.1156 24.7292 30.2948 24.5427 29.9948 23.7774C29.9948 23.7774 30.3608 23.7191 30.482 24.3774C30.566 24.7989 30.434 24.9524 30.7708 25.0729C30.7708 25.0729 30.8219 25.2233 30.6316 25.4392C30.4413 25.6552 30.6903 25.5601 30.8219 25.4941C31.0847 25.3306 31.2275 25.0288 31.1882 24.7219C31.1392 24.3674 31.0146 24.0277 30.8219 23.7264C30.9781 23.7757 31.1093 23.883 31.1882 24.026C31.3236 24.2681 31.3056 24.3924 31.6424 24.3924C31.7379 24.4812 31.7931 24.6055 31.7958 24.7364C31.7958 24.9708 31.5177 25.1354 31.6129 25.1024C31.708 25.0694 32.3448 24.8465 31.8614 24.0479C31.7969 23.8024 31.634 23.5934 31.4115 23.4701C31.0455 23.276 30.5805 22.7382 29.7313 22.5878C29.5437 22.3955 29.3871 22.176 29.2663 21.9364C29.2948 21.8722 29.318 21.8062 29.3357 21.7386C29.3541 21.6434 28.7833 18.7299 30.167 16.1202C30.167 16.1202 29.2372 16.6618 28.758 16.9142M29.6652 22.7892C30.1413 22.7892 31.2104 23.4993 31.192 23.5836C31.1736 23.6674 30.7927 23.4844 30.683 23.4406C30.5732 23.3969 30.4122 23.3788 30.5364 23.5541C30.676 23.7604 30.7743 23.9913 30.8257 24.2351C30.8257 24.3191 30.7379 24.2351 30.7379 24.2351C30.6104 23.8805 30.358 23.5851 30.0277 23.4042C29.8268 23.3275 29.7643 23.375 29.7532 23.5139C29.7424 23.6528 29.8156 23.9275 29.658 23.5357C29.5132 23.2243 29.2931 22.9538 29.0173 22.749C28.9042 22.6757 28.9552 22.5948 28.9552 22.5948C29.0215 22.5437 29.1073 22.524 29.1896 22.5403C29.366 22.5754 29.5299 22.6563 29.6652 22.7743" fill="white"/>
<path d="M19.9468 24.7476L20.9681 25.1649C20.942 25.5483 21.1184 25.9177 21.433 26.1386C21.3632 26.3295 21.2354 26.4931 21.067 26.6069C21.0049 26.6545 20.9535 26.6656 20.9681 26.6836C20.983 26.702 21.0233 26.6836 21.0632 26.6618C22.0372 26.2958 22.1323 25.3844 22.0882 24.7621C22.0646 24.4028 21.9004 24.067 21.6309 23.8288C21.6309 23.8288 23.2705 24.0556 23.8674 23.9351C24.4639 23.8139 23.8674 23.7882 23.8674 23.7882C22.6264 23.7882 21.2427 23.3018 20.5399 23.5323C19.9476 23.741 19.5507 24.2993 19.5479 24.9268C19.4528 25.4996 19.6788 26.0785 20.1375 26.4348C20.1778 26.4677 20.2326 26.5156 20.2399 26.5084C20.2472 26.5007 20.2031 26.4313 20.1847 26.4018C19.8781 25.91 19.798 25.3097 19.9652 24.7548" fill="white"/>
<path d="M37.0486 26.025C36.367 26.0594 35.6847 26.0164 35.0132 25.8969L34.867 25.9847C35.4344 26.1909 36.0344 26.2938 36.6386 26.2885C36.8326 26.3215 36.602 26.402 36.602 26.402C35.5698 27.2476 33.8532 26.9951 31.3275 26.9951C28.8018 26.9951 26.1548 27.7268 25.2875 27.8552C24.9215 27.9135 24.6468 27.6097 24.4018 27.4889C24.2149 27.3916 24.0215 27.3073 23.8233 27.2364C26.402 26.6781 29.0215 26.333 31.6566 26.2042C33.5712 26.0725 35.1892 26.3434 35.3903 24.8976C35.4548 24.5188 35.3823 24.1292 35.1854 23.7993C34.9448 23.4139 34.5924 23.1115 34.175 22.9316C34.0972 22.9122 34.0153 22.9122 33.9372 22.9316C33.2153 23.1573 32.4719 23.3073 31.7191 23.3788C31.5177 23.4042 31.6275 23.4625 31.6275 23.4625C32.3701 23.5104 33.1153 23.417 33.8236 23.1882C33.8868 23.1684 33.9545 23.1684 34.0177 23.1882C34.4566 23.3351 34.7982 23.6836 34.9361 24.1253C35.35 25.2601 34.4643 25.5233 33.7066 25.5601C32.949 25.5969 29.7532 25.9264 28.5417 25.9993C27.3299 26.0725 24.1493 26.508 22.974 26.6798C22.0847 26.8156 20.9465 26.8962 20.9465 26.8962C20.6389 26.8962 21.1437 27.0427 22.3556 27.2219C23.567 27.4014 23.8892 27.8805 24.3868 28.1955C24.7188 28.3299 25.0827 28.3652 25.434 28.298C25.9354 28.2468 27.0007 27.9319 27.6816 27.8295C29.9219 27.4812 32.192 27.3587 34.457 27.4632C36.2031 27.5184 36.8177 27.017 37.4073 26.2847C37.6854 25.9406 37.0413 26.0468 37.0413 26.0468" fill="white"/>
</g>
<defs>
<clipPath id="clip0_338_7086">
<rect width="48" height="44.4444" fill="white"/>
</clipPath>
</defs>
</svg>
